<svg width="735.8606445312499px" height="137.6px" xmlns="http://www.w3.org/2000/svg" viewBox="-117.93032226562497 6.200000000000003 735.8606445312499 137.6" style="background: none;" preserveAspectRatio="xMidYMid"><defs><filter id="editing-hover" x="-100%" y="-100%" width="300%" height="300%"><feFlood flood-color="none" result="flood"></feFlood><feComposite operator="in" in2="SourceAlpha" in="flood" result="shadow"></feComposite><feOffset dx="-0.5" dy="0" in="SourceGraphic" result="offset-1"></feOffset><feOffset dx="0.5" dy="0" in="shadow" result="offset-2"></feOffset><feMerge><feMergeNode in="offset-2"></feMergeNode><feMergeNode in="offset-1"></feMergeNode></feMerge></filter></defs><g filter="url(#editing-hover)"><g transform="translate(-16.695236206054688, 97.4000015258789)"><path d="M4.74 0L4.74-44.03L18.88-44.03L18.88-11.26L41.47-11.26L41.47 0L4.74 0ZM91.26-17.73L91.26-17.73Q91.26-8.70 85.57-3.97L85.57-3.97L85.57-3.97Q79.87 0.77 69.38 0.77L69.38 0.77L69.38 0.77Q58.88 0.77 53.15-3.97L53.15-3.97L53.15-3.97Q47.42-8.70 47.42-17.73L47.42-17.73L47.42-44.03L61.57-44.03L61.57-17.92L61.57-17.92Q61.57-14.21 63.55-12L63.55-12L63.55-12Q65.54-9.79 69.31-9.79L69.31-9.79L69.31-9.79Q73.09-9.79 75.10-12.03L75.10-12.03L75.10-12.03Q77.12-14.27 77.12-17.92L77.12-17.92L77.12-44.03L91.26-44.03L91.26-17.73ZM114.88-25.22L130.56-44.03L148.10-44.03L132.29-25.92L148.42 0L131.71 0L122.56-16.13L114.88-9.86L114.88 0L100.74 0L100.74-44.03L114.88-44.03L114.88-25.22ZM198.53 0L183.55 0L181.70-6.21L166.27-6.21L164.42 0L149.95 0L166.02-44.03L182.46-44.03L198.53 0ZM173.89-31.74L169.22-16.06L178.75-16.06L174.14-31.74L173.89-31.74ZM244.22-44.03L244.22-44.03Q267.33-44.03 267.33-22.02L267.33-22.02L267.33-22.02Q267.33 0 244.22 0L244.22 0L225.15 0L225.15-44.03L244.22-44.03ZM239.30-33.47L239.30-10.56L243.97-10.56L243.97-10.56Q252.86-10.56 252.86-20.10L252.86-20.10L252.86-23.94L252.86-23.94Q252.86-33.47 243.97-33.47L243.97-33.47L239.30-33.47ZM318.78-17.73L318.78-17.73Q318.78-8.70 313.09-3.97L313.09-3.97L313.09-3.97Q307.39 0.77 296.90 0.77L296.90 0.77L296.90 0.77Q286.40 0.77 280.67-3.97L280.67-3.97L280.67-3.97Q274.94-8.70 274.94-17.73L274.94-17.73L274.94-44.03L289.09-44.03L289.09-17.92L289.09-17.92Q289.09-14.21 291.07-12L291.07-12L291.07-12Q293.06-9.79 296.83-9.79L296.83-9.79L296.83-9.79Q300.61-9.79 302.62-12.03L302.62-12.03L302.62-12.03Q304.64-14.27 304.64-17.92L304.64-17.92L304.64-44.03L318.78-44.03L318.78-17.73ZM372.10 0L359.74 0L341.25-21.38L341.25 0L328.26 0L328.26-44.03L340.61-44.03L359.10-22.34L359.10-44.03L372.10-44.03L372.10 0ZM400.64-44.03L400.64-44.03Q423.74-44.03 423.74-22.02L423.74-22.02L423.74-22.02Q423.74 0 400.64 0L400.64 0L381.57 0L381.57-44.03L400.64-44.03ZM395.71-33.47L395.71-10.56L400.38-10.56L400.38-10.56Q409.28-10.56 409.28-20.10L409.28-20.10L409.28-23.94L409.28-23.94Q409.28-33.47 400.38-33.47L400.38-33.47L395.71-33.47ZM475.20-17.73L475.20-17.73Q475.20-8.70 469.50-3.97L469.50-3.97L469.50-3.97Q463.81 0.77 453.31 0.77L453.31 0.77L453.31 0.77Q442.82 0.77 437.09-3.97L437.09-3.97L437.09-3.97Q431.36-8.70 431.36-17.73L431.36-17.73L431.36-44.03L445.50-44.03L445.50-17.92L445.50-17.92Q445.50-14.21 447.49-12L447.49-12L447.49-12Q449.47-9.79 453.25-9.79L453.25-9.79L453.25-9.79Q457.02-9.79 459.04-12.03L459.04-12.03L459.04-12.03Q461.06-14.27 461.06-17.92L461.06-17.92L461.06-44.03L475.20-44.03L475.20-17.73ZM529.15 0L514.18 0L512.32-6.21L496.90-6.21L495.04 0L480.58 0L496.64-44.03L513.09-44.03L529.15 0ZM504.51-31.74L499.84-16.06L509.38-16.06L504.77-31.74L504.51-31.74Z" fill="#000000"></path></g></g><style>text {
  font-size: 64px;
  font-family: Arial Black;
  dominant-baseline: central;
  text-anchor: middle;
}</style></svg>